<svg id="Layer_1" data-name="Layer 1" xmlns="http://www.w3.org/2000/svg" xmlns:xlink="http://www.w3.org/1999/xlink" viewBox="0 0 515.02 133.15"><defs><style>.cls-1,.cls-2,.cls-3,.cls-4,.cls-5,.cls-6,.cls-7{stroke:#231f20;stroke-miterlimit:10;stroke-width:3px;}.cls-1{fill:url(#linear-gradient);}.cls-2{fill:url(#linear-gradient-2);}.cls-3{fill:url(#linear-gradient-3);}.cls-4{fill:url(#linear-gradient-4);}.cls-5{fill:url(#linear-gradient-5);}.cls-6{fill:url(#linear-gradient-6);}.cls-7{fill:url(#linear-gradient-7);}</style><linearGradient id="linear-gradient" x1="423.43" y1="313.28" x2="423.43" y2="414.97" gradientUnits="userSpaceOnUse"><stop offset="0" stop-color="#fff"/><stop offset="1" stop-color="#333"/></linearGradient><linearGradient id="linear-gradient-2" x1="507.93" y1="340.65" x2="507.93" y2="414.51" xlink:href="#linear-gradient"/><linearGradient id="linear-gradient-3" x1="570.59" y1="314.21" x2="570.59" y2="414.51" xlink:href="#linear-gradient"/><linearGradient id="linear-gradient-4" x1="672.28" y1="310.79" x2="672.28" y2="414.51" xlink:href="#linear-gradient"/><linearGradient id="linear-gradient-5" x1="733.16" y1="339.87" x2="733.16" y2="414.66" xlink:href="#linear-gradient"/><linearGradient id="linear-gradient-6" x1="791.77" y1="338.47" x2="791.77" y2="440.94" xlink:href="#linear-gradient"/><linearGradient id="linear-gradient-7" x1="855.52" y1="339.87" x2="855.52" y2="414.66" xlink:href="#linear-gradient"/></defs><title>web-logo</title><path class="cls-1" d="M400.41,410.77l-1.71,3.11A11.6,11.6,0,0,1,394,415a14.59,14.59,0,0,1-3.66-.39,9.57,9.57,0,0,1-3-1.47q-4.05-3.12-8.55-23.48-3.74-17.1-6.38-37.63t-2.64-28.92a17.89,17.89,0,0,1,1.17-7.23q1.16-2.57,5.21-2.57,7.14,0,9.64,4.67,1.86,3.42,1.86,10.57c0,1,0,2.05-.08,3s-.07,1.95-.07,2.88a184.27,184.27,0,0,0,1,20.13,137.73,137.73,0,0,0,3.5,19.05q3.25-9.63,6.53-19.43,5.9-16.95,10.57-26.9,6.38-13.68,10.11-13.69a12.07,12.07,0,0,1,7.23,2.18,18.41,18.41,0,0,1,5.21,6.06q1.86,11.52,3.88,23.95,4.2,25.19,6.38,31.41,4.35-16,5.6-20.37,5.43-18.66,9.33-28.46,5.75-14.3,9.64-14.3a12,12,0,0,1,7.3,2.41,7.62,7.62,0,0,1,3.27,6.45q0,4.51-6.69,21.77-9.33,24-12.28,32.81-6.84,19.9-6.84,29.23a32.88,32.88,0,0,0,.31,3.89l-2,2.95a14.22,14.22,0,0,1-5.13,1.09q-7,0-13.06-14-4.51-10.26-8.56-28.61-.15-.46-4.51-23-5.91,15.24-11.81,30.33Q400.41,397.09,400.41,410.77Z" transform="translate(-368.28 -309.29)"/><path class="cls-2" d="M503.66,400.82a18.54,18.54,0,0,0,14.46-6.22l10.26-13.68a8.37,8.37,0,0,1,5.91,2.33,7.59,7.59,0,0,1,2.49,5.76q0,9.63-11.35,17.88-10.57,7.62-20.68,7.62-11.06,0-18.35-6.61t-7.31-17.65q0-14.46,10.26-31.1,11.36-18.5,24.72-18.5a13.43,13.43,0,0,1,10.81,4.9A17.62,17.62,0,0,1,529,357.29q0,12.58-11.35,23a52,52,0,0,1-23.48,12.44Q495.88,400.83,503.66,400.82ZM515.79,356c0-1.55-.63-2.33-1.87-2.33q-4.66,0-10.57,9.64a67.34,67.34,0,0,0-6.69,14.3,51.85,51.85,0,0,0,12-9.17Q515.79,361.32,515.79,356Z" transform="translate(-368.28 -309.29)"/><path class="cls-3" d="M546.42,385.58q0-26.26,2-47.11t5.13-23a8.52,8.52,0,0,1,4.82-1.25,11.78,11.78,0,0,1,5.6,1.33,7,7,0,0,1,3.42,4.27,126.72,126.72,0,0,0-2.88,13.76,93.39,93.39,0,0,0-.85,13.14,52.56,52.56,0,0,1,6.45-2.64,19.28,19.28,0,0,1,6-.93,17.54,17.54,0,0,1,15.24,7.77q4.81,7,4.82,17.1,0,16.19-11.35,30.79Q572.7,414.51,557,414.51a15.8,15.8,0,0,1-7.93-1.87,7.44,7.44,0,0,1-4-6.84,4.35,4.35,0,0,1,1.86-3.27Zm35.29-18.65a13.49,13.49,0,0,0-1.55-6.85,6.54,6.54,0,0,0-5.91-3.26q-7.79,0-11.2,9.95a50.61,50.61,0,0,0-2.33,16.48q0,3.88.16,8t.62,8q8.24-3.88,14.23-13.45T581.71,366.93Z" transform="translate(-368.28 -309.29)"/><path class="cls-4" d="M684.64,396.62q7.15,0,11,1.56,6.23,2.49,6.22,8.4a10.81,10.81,0,0,1-1.55,5.13c-1,1.86-2.28,2.8-3.73,2.8a32.74,32.74,0,0,1-5.76-.63,87,87,0,0,0-10.26-1.55q-5.28,0-15.55,1.09t-15.24,1.09a7.17,7.17,0,0,1-7.15-7.16,6.49,6.49,0,0,1,3.89-6.06l-.16-5.75q0-11.51,1-25.82t2.18-29.62q1.17-15.3,1.17-24.49a3.88,3.88,0,0,1,2.41-3.57,10.56,10.56,0,0,1,4.9-1.25,14.43,14.43,0,0,1,7.54,2.1,6.5,6.5,0,0,1,3.49,5.83,254.73,254.73,0,0,1-1.86,27.21q-4.05,36.07-4,46.19v5.75q3.57,0,10.73-.62C678.68,396.83,682.26,396.62,684.64,396.62Z" transform="translate(-368.28 -309.29)"/><path class="cls-5" d="M740.15,339.87q10,0,15.09,9.64,4.18,7.78,4.19,18.66,0,16.8-6.53,29.85-8.24,16.65-23.32,16.64-11.51,0-17.42-8.24Q706.88,399,706.88,387q0-11.5,5.13-27.21Q718.54,340,727.25,340a6.35,6.35,0,0,1,5.13,2.48A12.8,12.8,0,0,1,740.15,339.87ZM721.34,389c0,4.35.64,7.46,1.94,9.32a6.19,6.19,0,0,0,5.37,2.8q7.61,0,12.28-14a66,66,0,0,0,3.58-20.53,25.09,25.09,0,0,0-1.09-8.08q-1.71-4.81-5.76-4.82c-2.79,0-5,1.61-6.76,4.82s-3.19,4.56-4.43,4a111.45,111.45,0,0,0-3.81,13.37A62.9,62.9,0,0,0,721.34,389Z" transform="translate(-368.28 -309.29)"/><path class="cls-6" d="M812.3,339.09a9.36,9.36,0,0,1,5.75,2.34q3,2.32,3,5a40.71,40.71,0,0,1-.78,7.31q-2,10.89-2,12.9,0,9.33-.16,18.82t-.31,18.81q0,17.11-7,26.28-7.92,10.41-24.72,10.42a35,35,0,0,1-14.62-3.11q-8.85-4.05-8.86-10.73a10.61,10.61,0,0,1,2-5.83q2-3,4.82-3a99.87,99.87,0,0,0,8.48,5.91,17,17,0,0,0,9.09,2.64,13.53,13.53,0,0,0,11.82-6.53,23.6,23.6,0,0,0,3.89-13.53l-.16-7a36.26,36.26,0,0,1-6.68,9,14.21,14.21,0,0,1-10,4.05q-9.18,0-14.31-9a34.52,34.52,0,0,1-4.35-17.42q0-14.46,7.15-29.54,8.7-18.35,21.46-18.35a15.57,15.57,0,0,1,10.73,4.2,16.25,16.25,0,0,1,2.48-2.33A5.63,5.63,0,0,1,812.3,339.09Zm-14.93,13.53q-6.06,0-10.73,14.62-3.89,12.12-3.88,19.9a20.83,20.83,0,0,0,.62,6.06q1.25,3.58,4.51,3.58,6.38,0,11.19-13.22Q803,372.84,803,364.75a32.15,32.15,0,0,0-.62-7.46Q801.11,352.63,797.37,352.62Z" transform="translate(-368.28 -309.29)"/><path class="cls-7" d="M862.52,339.87q9.94,0,15.08,9.64,4.2,7.78,4.2,18.66,0,16.8-6.53,29.85Q867,414.67,852,414.66q-11.51,0-17.42-8.24Q829.25,399,829.25,387q0-11.5,5.13-27.21Q840.91,340,849.62,340a6.35,6.35,0,0,1,5.13,2.48A12.8,12.8,0,0,1,862.52,339.87ZM843.71,389c0,4.35.64,7.46,1.94,9.32a6.17,6.17,0,0,0,5.37,2.8q7.61,0,12.28-14a66,66,0,0,0,3.58-20.53,25.09,25.09,0,0,0-1.09-8.08q-1.71-4.81-5.76-4.82t-6.76,4.82q-2.57,4.82-4.43,4A111.45,111.45,0,0,0,845,375.94,62.9,62.9,0,0,0,843.71,389Z" transform="translate(-368.28 -309.29)"/></svg>